<svg width="151" height="150" viewBox="0 0 151 150" fill="none" xmlns="http://www.w3.org/2000/svg">
<path d="M123.546 39.9675C122.871 38.4625 125.007 38.075 126.693 38.4118C128.379 38.7486 128.379 35.7296 127.197 32.8776C126.015 30.0255 123.996 34.2246 122.646 32.216C121.296 30.2073 122.817 30.8778 122.646 29.203C122.475 27.5281 121.803 28.3655 119.613 27.5281C117.423 26.6907 118.095 27.3612 116.748 26.0201C115.401 24.679 115.569 24.53 115.401 23.0071C115.233 21.4843 111.861 21.666 111.354 20.325C110.847 18.9839 110.85 18.817 110.679 16.9752C110.508 15.1335 108.321 15.804 105.455 16.8083C102.59 17.8127 104.102 15.4732 101.402 13.7983C101.402 13.7983 98.2013 12.4572 97.3583 11.286C96.5153 10.1148 94.4932 12.2903 92.4712 12.9609C90.4491 13.6314 92.9752 9.9479 92.4712 9.11047C91.9672 8.27303 89.2671 10.2817 88.9311 9.27736C88.5951 8.27303 87.413 8.27303 87.413 7.10181C87.413 5.9306 84.713 6.26438 83.873 4.92329C83.0329 3.5822 81.1729 4.7564 80.3329 6.01404C79.4929 7.27169 78.3108 5.09018 77.6328 5.03356C76.9548 4.97693 73.4177 4.25274 72.2327 5.03356C71.0477 5.81437 70.7147 7.4356 69.5326 8.27303C68.3506 9.11047 66.3286 8.10614 65.3175 6.93194C64.3065 5.75774 61.2734 6.76505 60.7664 6.93194C60.2594 7.09883 57.7334 10.2817 56.5663 10.2817C55.3993 10.2817 55.0483 10.4486 53.0263 11.4529C51.0042 12.4572 52.6873 12.794 51.8472 14.2215C51.0072 15.649 50.4972 15.807 49.1472 14.8176C47.7971 13.8281 47.9651 12.9758 44.9321 13.4794C41.899 13.9831 44.2571 16.3255 43.585 17.6517C42.913 18.9779 42.067 17.4848 40.045 16.3136C38.0229 15.1424 38.3589 17.4848 36.5049 17.9855C34.6508 18.4862 34.8188 16.9812 32.3048 17.9855C29.7907 18.9898 31.8008 21.3352 33.6548 22.6763C35.5089 24.0174 32.3048 26.6936 31.6328 26.8486C30.9608 27.0036 28.7677 25.8443 26.9137 26.8486C25.0596 27.8529 28.5967 31.2027 28.0927 32.3739C27.5887 33.5451 25.7316 31.8732 22.8666 34.2067C20.0015 36.5402 25.0596 36.5611 24.2166 39.2403C23.3736 41.9195 26.9167 41.8062 26.9167 41.8062L27.8437 47.1706L122.403 45.1768L123.546 39.9675Z" fill="#FDE69C" stroke="#231F20" stroke-width="2.5" stroke-miterlimit="10"/>
<path d="M26.9104 41.8152L42.7778 133.605L43.4258 137.36L72.7784 144.006L102.419 137.694L123.996 40.2416C123.996 40.2416 119.051 36.4449 112.532 41.6632C112.532 41.6632 107.813 33.6167 98.039 40.2416C98.039 40.2416 91.9699 30.8659 80.8456 38.3999C80.8456 38.3999 77.5245 33.8432 72.0164 34.0667C70.3899 34.1412 68.7967 34.5506 67.3378 35.2688C65.8789 35.987 64.5861 36.9984 63.5412 38.2389C63.5412 38.2389 54.214 30.6484 47.2479 40.1344C47.2479 40.1344 38.8777 35.1783 33.5376 42.59C33.5376 42.596 31.7405 40.03 26.9104 41.8152Z" fill="#FED65B"/>
<path d="M79.3188 142.343L80.2489 39.0406C80.2489 39.0406 89.9751 30.7974 97.5322 40.2625L87.854 140.502L79.3188 142.343Z" fill="#BE992E"/>
<path d="M36.5168 32.216C36.5168 32.216 38.8329 29.0361 41.0469 30.3742C43.261 31.7123 41.743 28.0288 43.765 27.1943C45.7871 26.3599 47.4431 25.5195 48.5651 26.5238" stroke="#231F20" stroke-width="2.5" stroke-miterlimit="10"/>
<path d="M55.0571 21.4992C56.5752 21.3323 59.6082 22.1339 60.2832 23.0727C60.9583 24.0115 60.2832 24.6016 60.9553 26.0529C61.6273 27.5043 64.8013 27.3612 64.8013 27.3612" stroke="#231F20" stroke-width="2.5" stroke-miterlimit="10"/>
<path d="M38.2029 21.4783C39.7029 20.9985 40.0569 19.7826 41.743 21.4783C43.429 23.174 45.451 23.9757 45.7871 23.0727" stroke="#231F20" stroke-width="2.5" stroke-miterlimit="10"/>
<path d="M70.3967 12.1235C74.7768 12.1235 74.4408 11.7897 75.4519 13.6314C76.4629 15.4732 75.9589 15.4732 77.6449 15.6401C79.3309 15.807 82.025 13.9652 82.532 14.6358" stroke="#231F20" stroke-width="2.5" stroke-miterlimit="10"/>
<path d="M78.4849 28.1987C80.6779 26.3569 79.1599 26.6102 82.532 26.0648C85.904 25.5195 83.879 23.1383 86.9151 23.0846C89.9511 23.031 91.4662 24.6761 91.9702 24.4347" stroke="#231F20" stroke-width="2.5" stroke-miterlimit="10"/>
<path d="M60.6194 13.8758C62.6414 14.1321 62.7554 12.9818 63.5415 15.6639C64.3275 18.3461 65.7345 18.1643 66.0435 18.3312" stroke="#231F20" stroke-width="2.5" stroke-miterlimit="10"/>
<path d="M96.0022 32.216C97.0162 29.3699 96.5092 28.0437 98.0272 28.1987C99.5453 28.3536 100.553 29.3699 101.735 28.1987C102.917 27.0274 101.402 24.4972 103.094 24.4376C103.094 24.4376 107.141 23.9042 108.152 23.4631" stroke="#231F20" stroke-width="2.5" stroke-miterlimit="10"/>
<path d="M93.2629 17.6487C96.689 17.4819 96.689 16.4775 98.039 18.3193" stroke="#231F20" stroke-width="2.5" stroke-miterlimit="10"/>
<path d="M108.152 33.3782C109.163 31.8881 109.331 28.6904 114.725 30.1984" stroke="#231F20" stroke-width="2.5" stroke-miterlimit="10"/>
<path d="M102.419 137.7L95.2371 139.405L112.082 41.392C112.082 41.392 118.482 35.4107 123.996 40.2536L102.419 137.7Z" fill="#BE992E"/>
<path d="M72.0168 34.0786L72.7789 144.012" stroke="#231F20" stroke-width="2.5" stroke-miterlimit="10"/>
<path d="M63.2115 38.2747C63.2115 38.2747 53.7163 30.1835 46.7981 39.8572L56.7373 139.992L65.7225 142.248L63.2115 38.2747Z" fill="#BE992E"/>
<path d="M32.8897 42.4976C32.8897 42.4976 30.7896 39.282 26.4575 41.5321L42.9759 137.089L48.733 138.704L32.8897 42.4976Z" fill="#BE992E"/>
<path d="M26.4575 41.5321L42.3279 133.322L42.9759 137.077L72.3316 143.723L101.969 137.411L123.546 39.9585C123.546 39.9585 118.602 36.1647 112.082 41.3831C112.082 41.3831 107.363 33.3365 97.5861 39.9585C97.5861 39.9585 91.52 30.5828 80.3958 38.1168C80.3958 38.1168 77.0747 33.563 71.5665 33.7865C69.9401 33.8613 68.347 34.2707 66.8881 34.9889C65.4292 35.7071 64.1363 36.7184 63.0914 37.9588C63.0914 37.9588 53.7641 30.3682 46.801 39.8572C46.801 39.8572 38.4278 34.9011 33.0907 42.3129C33.0877 42.3188 31.2906 39.7469 26.4575 41.5321Z" stroke="#231F20" stroke-width="2.5" stroke-miterlimit="10"/>
<path d="M42.7781 133.611L72.7788 139.834L103.109 134.586" stroke="#231F20" stroke-width="2.5" stroke-miterlimit="10"/>
</svg>
