<svg width="151" height="150" viewBox="0 0 151 150" fill="none" xmlns="http://www.w3.org/2000/svg">
<path d="M143.697 49.8302L84.1992 27.6262L53.9229 107.684L113.421 129.888L143.697 49.8302Z" fill="#BE992E" stroke="#231F20" stroke-width="2.5" stroke-miterlimit="10"/>
<path d="M138.491 52.1085L86.6064 32.7459L63.0665 94.9911L114.951 114.354L138.491 52.1085Z" fill="#FDE69C" stroke="#231F20" stroke-width="2.5" stroke-miterlimit="10"/>
<path d="M115.541 27.8712L47.085 22.4954L39.7547 114.607L108.211 119.983L115.541 27.8712Z" fill="#BE992E" stroke="#231F20" stroke-width="2.5" stroke-miterlimit="10"/>
<path d="M110.824 31.7891L51.1245 27.1009L45.4251 98.7195L105.125 103.408L110.824 31.7891Z" fill="#FDE69C" stroke="#231F20" stroke-width="2.5" stroke-miterlimit="10"/>
<path d="M76.9851 18.8006L6.3457 32.4052L24.8964 127.454L95.5358 113.849L76.9851 18.8006Z" fill="#BE992E" stroke="#231F20" stroke-width="2.5" stroke-miterlimit="10"/>
<path d="M73.427 24.3935L11.6753 36.062L25.8613 110.146L87.613 98.4774L73.427 24.3935Z" fill="#FDE69C" stroke="#231F20" stroke-width="2.5" stroke-miterlimit="10"/>
</svg>
