<svg width="151" height="150" viewBox="0 0 151 150" fill="none" xmlns="http://www.w3.org/2000/svg">
<path d="M94.4016 38.562H55.6025L55.6025 140.04H94.4016V38.562Z" fill="#FED65B" stroke="#231F20" stroke-width="2.5" stroke-miterlimit="10"/>
<path d="M55.6022 69.9H16.8032L16.8032 140.037H55.6022L55.6022 69.9Z" fill="#BE992E" stroke="#231F20" stroke-width="2.5" stroke-miterlimit="10"/>
<path d="M133.203 98.256H94.4043V140.04H133.203V98.256Z" fill="#FDE69C" stroke="#231F20" stroke-width="2.5" stroke-miterlimit="10"/>
<path d="M36.2043 62.442C42.0431 62.442 46.7763 57.7088 46.7763 51.87C46.7763 46.0312 42.0431 41.298 36.2043 41.298C30.3656 41.298 25.6323 46.0312 25.6323 51.87C25.6323 57.7088 30.3656 62.442 36.2043 62.442Z" fill="#E6E7E8" stroke="#231F20" stroke-width="2.5" stroke-miterlimit="10"/>
<path d="M75.0036 31.104C80.8424 31.104 85.5757 26.3708 85.5757 20.532C85.5757 14.6932 80.8424 9.96 75.0036 9.96C69.1649 9.96 64.4316 14.6932 64.4316 20.532C64.4316 26.3708 69.1649 31.104 75.0036 31.104Z" fill="#F8CF3D" stroke="#231F20" stroke-width="2.5" stroke-miterlimit="10"/>
<path d="M113.802 90.795C119.641 90.795 124.374 86.0618 124.374 80.223C124.374 74.3843 119.641 69.651 113.802 69.651C107.964 69.651 103.23 74.3843 103.23 80.223C103.23 86.0618 107.964 90.795 113.802 90.795Z" fill="#BB761A" stroke="#231F20" stroke-width="2.5" stroke-miterlimit="10"/>
</svg>
