<svg width="151" height="150" viewBox="0 0 151 150" fill="none" xmlns="http://www.w3.org/2000/svg">
<path d="M131.664 55.38C94.9199 77.9337 54.0274 92.8933 11.4033 99.375L18.6963 119.319L25.9923 139.263C68.616 132.782 109.508 117.823 146.253 95.271L138.957 75.324L131.664 55.38Z" fill="#FED65B" stroke="#231F20" stroke-width="2.5" stroke-miterlimit="10"/>
<path d="M82.8214 10.737C63.4628 49.2654 36.5771 83.5223 3.75342 111.483L20.4604 124.596L37.1644 137.7C69.9892 109.742 96.876 75.487 116.235 36.96L99.5284 23.847L82.8214 10.737Z" fill="#FED65B" stroke="#231F20" stroke-width="2.5" stroke-miterlimit="10"/>
<path d="M88.8003 60.201C97.8666 60.201 105.216 52.8513 105.216 43.785C105.216 34.7187 97.8666 27.369 88.8003 27.369C79.734 27.369 72.3843 34.7187 72.3843 43.785C72.3843 52.8513 79.734 60.201 88.8003 60.201Z" fill="#FDE69C" stroke="#231F20" stroke-width="2.5" stroke-miterlimit="10"/>
<path d="M59.9941 49.251L93.4141 75.462" stroke="#231F20" stroke-width="2.5" stroke-miterlimit="10"/>
<path d="M119.221 102.018C128.287 102.018 135.637 94.6683 135.637 85.602C135.637 76.5357 128.287 69.186 119.221 69.186C110.154 69.186 102.805 76.5357 102.805 85.602C102.805 94.6683 110.154 102.018 119.221 102.018Z" fill="#FDE69C" stroke="#231F20" stroke-width="2.5" stroke-miterlimit="10"/>
<path d="M91.6416 77.538L106.624 115.959" stroke="#231F20" stroke-width="2.5" stroke-miterlimit="10"/>
</svg>
